<?xml version="1.0" encoding="UTF-8"?>
<svg version="1.1" viewBox="0 0 2048 550" width="1280" height="1280" xmlns="http://www.w3.org/2000/svg">
<path transform="translate(260,19)" d="m0 0h11l27 2 23 4 24 7 20 8 23 12 18 12 13 10 12 11 18 18 10 13 10 15 9 15 11 23 9 28 4 18 3 19 1 11v27l-2 21-5 26-10 30-10 21h-3l-8-10-13-18-14-17-8-10-15-16-13-14-11-9-8-8-13-10-16-12-15-10-18-11-23-12-26-11-7-3-7 1-25 10-24 12-22 13-19 13-17 13-14 12-15 14-17 17-7 8-8 9-18 22-12 17-8 11-4-2-7-14-8-23-5-17-3-15-2-20-1-23 2-31 3-18 7-25 8-21 13-25 9-14 12-16 9-10 20-20 14-11 16-11 16-9 16-8 24-9 20-5 26-4z" fill="#FDFDFE"/>
<path transform="translate(264,214)" d="m0 0 5 2 15 13 10 11 12 16 9 15 9 19 9 27 5 23 3 26 1 68 21-10 16-5 18-4 31-1 27 5 1 2-10 13-9 10-11 11-14 11-15 11-25 14-23 10-28 8-14 3-19 2h-46l-20-2-18-4-9-3-11-3-23-10-19-10-15-10-13-10-14-12-11-11-9-11-5-6v-2l29-6h16l21 2 22 6 26 12v-63l2-20 6-31 6-20 5-13 12-23 11-16 11-13 9-10 10-9z" fill="#FDFDFE"/>
<path transform="translate(1740,89)" d="m0 0 66 1 1 207 11 2 10 3v26h-60l-1-1-1-7v-10l-6 4-8 8-8 5-14 4-13 1-16-3-9-4-6-4-10-9-7-10-7-16-4-17-1-12v-15l2-23 7-21 7-13 11-12 8-6 11-5 11-2h12l15 3 12 7 7 7 2 1v-57l-15-2-8-2-1-2v-23zm-13 106-10 5-7 8-5 12-3 16v22l3 16 6 12 9 8 13 3 13-2 11-7 4-5 1-2v-69l-4-6-9-8-7-3z" fill="#FDFDFE"/>
<path transform="translate(663,102)" d="m0 0 22 1 20 4 16 6 12 6 9 7 2 2 1 6v47l-1 1h-32l-2-6-4-26-5-5-16-6-5-1h-23l-13 4-10 6-10 9-8 14-6 18-2 16v27l3 16 5 15 10 15 9 8 15 7 13 3h15l12-2 16-6 5-30h33v53l-10 7-21 8-21 4-25 2-25-3-16-5-14-6-16-12-5-4-11-15-7-12-7-19-4-32v-16l4-29 8-21 7-12 8-11 10-10 14-10 15-7 15-4z" fill="#FDFDFE"/>
<path transform="translate(1142,105)" d="m0 0h198l1 1v60l-1 1h-33l-2-7-1-20-40 1v156l9 1 13 3 2 2v25h-94v-26l5-2 17-3 1-54v-103h-40v13l-1 13-1 1h-33l-1-1v-60z" fill="#FDFDFE"/>
<path transform="translate(1539,160)" d="m0 0h24l14 2 15 5 14 9 7 8 6 12 3 10 1 16 1 76 9 2 7 2 1 1v25h-55l-4-7-1-11-11 9-10 7-16 5-12 1-15-2-12-5-6-4-5-4-7-10-4-9-2-11 1-15 4-10 6-10 7-7 14-8 8-3 14-3 13-1 28-1v-19l-5-10-7-6-9-2h-12l-12 3-3 2-4 20-2 2h-30l-1-1-1-8v-31l4-4 16-8 16-5zm13 97-11 2-10 7-3 5-1 4v11l5 8 6 3 4 1h11l11-3 10-7 3-4 1-5v-21l-1-1z" fill="#FDFDFE"/>
<path transform="translate(833,160)" d="m0 0h17l16 3 12 5 9 6 6 5 7 10 6 12 3 11 2 21v25l-2 1-95 1 3 15 7 10 7 6 9 4 5 1h11l14-2 14-5 8-4 4 1 10 23 1 4-11 7-11 5-14 4-12 2h-22l-18-3-12-5-9-6-10-9-6-7-7-11-7-20-1-9v-27l3-17 6-16 5-9 9-12 11-9 14-7 11-3zm2 33-8 4-6 7-4 8-4 17h55l1-5-3-16-4-7-6-5-7-3z" fill="#FDFDFE"/>
<path transform="translate(1908,160)" d="m0 0h18l16 3 13 5 11 8 7 8 7 12 5 17 2 23v21l-5 2h-93l4 16 6 9 5 5 12 6 5 1h11l19-3 15-7 5-1 9 19 2 5-1 5-8 6-15 6-16 4-22 2-21-3-14-5-10-6-12-11-10-14-6-15-3-11-1-8v-25l2-15 6-16 7-13 8-10 11-9 16-8zm4 33-8 4-5 5-5 8-4 16v3h54l1-5-3-17-4-6-7-6-5-2z" fill="#FDFDFE"/>
<path transform="translate(928,90)" d="m0 0h67l1 206 19 5 1 1 1 25-1 1h-87l-1-3v-21l3-3 18-5 1-1v-155l1-19-19-3-5-2v-25z" fill="#FDFDFE"/>
<path transform="translate(1049,122)" d="m0 0h42l2 1 1 39 30 1v30l-2 1h-28v85l2 10 1 4 7 2h19l2 6 2 19v7l-5 2-13 2h-24l-11-3-10-6-8-9-6-13-2-16v-90h-18l-4-1v-29l1-1 20-1 1-39z" fill="#FDFDFE"/>
<path transform="translate(1443,160)" d="m0 0h19l7 2-2 26-2 14-1 1h-28l-10 4-7 7-1 2-1 19v61l19 5 2 1v26h-87l-1-8v-17l5-3 15-4v-102l-21-4-1-1v-26h65l1 1 2 19h2l2-5 9-10 11-7z" fill="#FDFDFE"/>
<path transform="translate(1657,380)" d="m0 0 7 1 2 3 9 45 3-9 10-38 1-1h6l3 7 9 35 2 9 3-13 6-33 2-5h8l-5 25-6 29-3 9-3 1-6-2-3-7-8-33-1-7-2 4-10 40-3 4h-6l-3-4-6-24-6-32z" fill="#DEFAFE"/>
<path transform="translate(607,380)" d="m0 0h20l9 3 5 4 3 6-1 8-4 6h-2l1 4 8 7 1 3v9l-3 6-6 5-9 3h-24l-2-5v-57zm6 7-1 4v14l1 3h14l6-4 2-2v-8l-4-5-6-2zm5 27-6 1v20l1 2h15l7-3 4-4v-9l-4-5-2-1z" fill="#DEFAFE"/>
<path transform="translate(1177,380)" d="m0 0 7 1 6 9 9 16 8 14 6 10-1-10v-38l1-1h8v63h-7l-5-5-13-22-11-20-2 47h-7l-1-1v-44l1-18z" fill="#DEFAFE"/>
<path transform="translate(1555,381)" d="m0 0h7l5 5 9 16 10 17 6 11v-49h8l1 1v60l-2 2h-6l-6-7-14-24-10-19v21l-1 29h-6l-1-1-1-13v-42z" fill="#DEFAFE"/>
<path transform="translate(942,380)" d="m0 0h15l12 2 8 7 2 4v9l-4 8-6 5-2 2 8 16 5 9v2l-9-1-10-16-3-9-13-1v26l-1 1h-6l-1-1-1-7v-48l1-7zm3 7v23h19l4-2 2-4v-10l-5-5-8-2z" fill="#DEFAFE"/>
<path transform="translate(1087,381)" d="m0 0h8l1 7v20l10-1h18v-26h9l1 1v61l-4 1-6-2v-27l-28 1-1 28h-7l-1-16z" fill="#DEFAFE"/>
<path transform="translate(1380,380)" d="m0 0h14l9 5 6 7 4 10 1 6v9l-4 13-6 8-5 4-8 3h-10l-8-3-7-7-5-10-1-4v-17l4-11 6-8zm3 7-8 4-4 5-3 11v13l4 10 7 6 3 1h9l6-3 5-6 2-6v-20l-4-8-7-6-3-1z" fill="#DEFAFE"/>
<path transform="translate(1739,381)" d="m0 0h7l1 27 28-1v-26h10v63h-9l-1-2v-27h-28l-1 29h-6l-2-7v-38z" fill="#DEFAFE"/>
<path transform="translate(1433,380)" d="m0 0h16l9 2 6 4 4 5 1 3v9l-5 8-6 5h-2l10 19 5 9-4 1-6-3-6-9-6-11-1-4-13-1v26l-1 1h-6l-1-1v-62zm3 7-1 2v21l1 1h12l8-2 4-5 1-6-3-7-8-4z" fill="#DEFAFE"/>
<path transform="translate(1859,380)" d="m0 0h13l12 2 7 6 2 4 1 10-2 6-7 6-4 1 14 28v1h-6l-6-5-11-20-2-1-10-1v26l-1 1-7-1v-62zm1 7v23l1 1 18-1 4-2 2-4v-10l-4-5-5-2z" fill="#DEFAFE"/>
<path transform="translate(1260,379)" d="m0 0 10 1 8 5 3 5-1 2-7-1-7-3h-8l-7 4-5 7-3 11 1 11 4 8 5 5 5 2h12l3-2v-15l-11-2-1-5 1-1 13-1 7 2v24l-2 4-8 4-3 1h-13l-8-3-7-6-6-12-1-6v-11l3-10 6-9 8-6z" fill="#DEFAFE"/>
<path transform="translate(791,380)" d="m0 0h31l1 1v6l-1 1h-28v19l23 1 1 1v5l-1 1h-23v21h19l9 1 2 6-1 1h-37l-1-4v-59z" fill="#DEFAFE"/>
<path transform="translate(659,381)" d="m0 0h9l1 40 2 10 4 4 2 1h11l5-3 2-5 1-11 1-36h8v42l-2 9-6 9-8 4h-14l-6-3-6-7-3-8-1-10z" fill="#DEFAFE"/>
<path transform="translate(1912,380)" d="m0 0h25l7 1v6l-1 1h-27l1 19 22 1 1 1v5l-1 1h-23v22h29v7h-35l-2-1-1-6v-56z" fill="#DEFAFE"/>
<path transform="translate(893,380)" d="m0 0h29v7l-1 1h-26l-1 19 25 1v6l-1 1h-24l1 20 28 2v7h-36l-1-1v-62z" fill="#DEFAFE"/>
<path transform="translate(417,414)" d="m0 0h11l27 5 1 2-10 13-9 10-11 11-14 11-15 11-25 14-23 10-28 8-14 3-19 2h-46l-20-2-18-4-9-3-11-3-23-10-19-10-12-8 2-1 15 9 16 8 20 8 15 5 17 4 20 4 14 1h32l17-1 28-6 29-10 21-10 19-11 16-11 12-11 20-20 5-6v-5l-1-1-25-2-27 2-11 2-32 10-4-1 20-9 25-6 4-1z" fill="#DEFAFE"/>
<path transform="translate(1808,380)" d="m0 0h28l1 1v7h-27v19l24 1v7h-24l1 21 27 1 1 1v6h-37l-1-8v-47l1-8z" fill="#DEFAFE"/>
<path transform="translate(1517,380)" d="m0 0h6l3 3 15 46 5 12v3h-7l-2-1-6-17-23-1-4 16-4 3h-4l1-8 12-38 6-16zm2 9-8 25v4l18 1-2-9-6-21z" fill="#DEFAFE"/>
<path transform="translate(829,381)" d="m0 0h7l3 5 13 46 1 1 15-50 2-2h7l-1 6-7 24-9 27-4 6h-6l-4-5-12-36-5-19z" fill="#DEFAFE"/>
<path transform="translate(1320,380)" d="m0 0h32l1 1v7h-28v21h23l2 1v5l-1 1h-24v26l-2 2h-6l-1-3v-60z" fill="#DEFAFE"/>
<path transform="translate(264,196)" d="m0 0 9 2 25 11 1 2-9-3-22-9-7 1-25 10-24 12-22 13-19 13-17 13-14 12-15 14-17 17-7 8-8 9-18 22-12 17-8 11-4-2-7-14-3-8 1-3 9 19 4 1 3-3 12-18 9-11 8-10 12-13 13-14 7-8 14-12 9-9 11-9 14-11 17-12 19-11 33-17 20-8z" fill="#DEFAFE"/>
<path transform="translate(712,380)" d="m0 0 8 1 4 5 11 24 14-28 4-2 5 1-4 10-11 21-3 8-1 23-1 1h-5l-3-5-1-20-5-12-10-21-2-3z" fill="#DEFAFE"/>
<path transform="translate(1179,139)" d="m0 0h40l1 1v32l-1 124-4 4-18 4v21l1 1h82l4-1 1-22-20-4-3-1-1-2 1-156 2 1v156l9 1 13 3 2 2v25h-94v-26l5-2 17-3 1-54v-103h-38z" fill="#DEFAFE"/>
<path transform="translate(984,380)" d="m0 0h7l4 6 10 24 3-3 11-24 4-3h5l-1 6-13 26-3 9-2 22-1 1h-6l-1-4-1-21-4-10-13-26z" fill="#DEFAFE"/>
<path transform="translate(1030,380)" d="m0 0h41l6 2v5l-1 1h-19v55l-1 1h-6l-1-1-1-55h-18z" fill="#DEFAFE"/>
<path transform="translate(1609,380)" d="m0 0h8l7 15 6 14v2l3-3 11-24 5-4 5 1-4 10-11 22-3 9-1 21-1 1h-6l-1-2-1-22-9-20-8-17z" fill="#DEFAFE"/>
<path transform="translate(1908,160)" d="m0 0h18l16 3 13 5 11 8 7 8 7 12 5 17 2 23v21l-5 2h-93l4 16 6 9v3l-6-7-4-8-2-7 1-7 3-1 19-1 67-1 5-2 2-3v-18l-2-19-6-18-7-12-10-9-13-7-12-3-8-1h-17l-10 2-13 5-12 8-10 9-9 12-1-2 7-11 8-9 13-9 11-5z" fill="#DEFAFE"/>
<path transform="translate(1142,105)" d="m0 0h198l1 1v60l-1 1h-33l-1-1v-5l3 2h28l2-1v-28l-1-24-1-2-12-1h-163l-16 1-2 4-1 19v30l3 2 28-1 1-6h1v10l-1 1h-33l-1-1v-60z" fill="#DEFAFE"/>
<path transform="translate(833,160)" d="m0 0h17l16 3 12 5 9 6 6 5 7 10 6 12 3 11 2 21v25l-2 1-97 1 1-3 5-1 42-1h36l10-1 3-3v-16l-2-17-5-18-7-14-4-5-13-10-11-5-16-3h-20l-13 4-9 4-10 6-9 7-10 14-5 10-1-3 7-13 9-12 11-9 14-7 11-3z" fill="#DEFAFE"/>
<path transform="translate(264,214)" d="m0 0 5 2 15 13 10 11 12 16 9 15 9 19 9 27 5 23 3 26v69l-2-1v-67l-3-23-7-32-6-15-11-25-10-18-12-14-10-11-9-6-4-3-6 1-5 5h-2l-1 3-4 4h-2l-2 4-10 12-8 10-9 13-4 7-1-2 9-16 12-17 9-10 7-8 11-10z" fill="#DEFAFE"/>
<path transform="translate(663,102)" d="m0 0 22 1 20 4 16 6 12 6 9 7 2 2 1 6v47l-1 1h-32l-1-5 1 2h18l10-2 2-4v-32l-1-11-5-5-13-8-14-6-16-4-6-1h-43l-21 8-17 10-10 8-9 10-11 18-3 3 1-5 7-12 8-11 10-10 14-10 15-7 15-4z" fill="#DEFAFE"/>
<path transform="translate(711,258)" d="m0 0h33v53l-10 7-21 8-21 4-25 2-25-3-16-5-14-6-4-4 6 2 16 7 16 4 19 1h13l18-1 20-5 15-6 8-5 2-4v-46h-24l-3 1-3 16-2 8-3 5-8 4-12 3h-25l-10-2-9-4-3-3 18 6 6 1h15l12-2 16-6z" fill="#DEFAFE"/>
<path transform="translate(1740,89)" d="m0 0 66 1 1 207 11 2 10 3v26h-60v-3l12 1h38l6-2 1-2v-17l-1-2-15-4-4-2-1-2v-176l-1-21-1-5h-59l-2 3-2 11h-1v-15z" fill="#DEFAFE"/>
<path transform="translate(1150,381)" d="m0 0h9v62l-1 1h-8z" fill="#DEFAFE"/>
<path transform="translate(1968,285)" d="m0 0h3l9 19 2 5-1 5-8 6-15 6-16 4-22 2-21-3-14-5-10-6-12-11-4-5 1-2 10 11 11 8 11 5 6 2 17 2h19l12-1 19-7 9-5 3-1v-7l-6-15-1-1-8 1-12 5-13 2h-15l-9-2-9-5-3-4 4 2 11 5 5 1h11l19-3 15-7z" fill="#DEFAFE"/>
<path transform="translate(495,190)" d="m0 0 2 3 5 22 3 19 1 11v27l-2 21-5 26-10 30-10 21h-3l-8-10-8-11 1-2 9 11 4 6 5-1 8-16 4-12 3-11 4-16 4-27v-41l-3-28-4-18z" fill="#DEFAFE"/>
<path transform="translate(656,135)" d="m0 0h19l10 2v1h-28l-13 4-10 6-10 9-8 14-6 18-2 16v27l3 16 5 15 10 15 5 6-4-2-8-8-5-8-5-13-4-20-1-10v-10l2-21 4-15 5-13 10-13 12-9 11-5z" fill="#DEFAFE"/>
<path transform="translate(1363,192)" d="m0 0h9l1 1v103l-6 4-11 3h-3v22l1 1h79l3-1v-20l-1-3-11-2-3-2 8 1 9 3v26h-87l-1-8v-17l5-3 15-4v-102l-7-1z" fill="#DEFAFE"/>
<path transform="translate(1093,194)" d="m0 0h1v85l2 10 1 4 7 2h19l2 6 2 19v7l-5 2-13 2h-24l-11-3-10-6-8-9-6-13-1-4v-12h1l4 19 6 12 8 7 9 4 12 2h16l16-2 3-2-1-15-2-10-20-2-6-4-3-7v-88z" fill="#DEFAFE"/>
<path transform="translate(928,90)" d="m0 0h67v206h-1l-1-184-1-15-1-3-2-1-53-1-5 2-2 11v7l4 4 3 2-8-1-1-1v-25z" fill="#DEFAFE"/>
<path transform="translate(1730,192)" d="m0 0h9l9 3 9 7 6 8v10h-1l-2-10-7-8-8-5-3-1h-15l-10 5-6 7-5 12-3 16v22l3 16 6 12 8 7 13 3 13-2 11-7 4-4-1 5-8 6-10 4h-16l-7-3-8-6-5-7-4-10-2-14v-11l2-23 3-12 6-9 8-7 6-3z" fill="#DEFAFE"/>
<path transform="translate(260,19)" d="m0 0h11l27 2 23 4 24 7 20 8 23 12 18 12 13 10 1 2-4-2-11-8-14-9-16-9-19-9-13-5-11-3-21-5-23-3h-54l-6 1h-8v-1l20-3z" fill="#DEFAFE"/>
<path transform="translate(1545,189)" d="m0 0 14 1 8 3 7 6 4 7 1 24-2 2-47 4-17 5-14 8-8 6 2-4 9-8 15-8 18-4 13-1 28-1v-19l-5-10-7-6-9-2h-12l-14 3 3-3z" fill="#DEFAFE"/>
<path transform="translate(209,25)" d="m0 0h5l-3 2-24 7-19 8-19 10-17 11-11 8-10 8-10 9-8 7-12 13-5 6-4 7-6 7-1-2 10-14 9-11 24-24 14-11 16-11 16-9 16-8 24-9z" fill="#DEFAFE"/>
<path transform="translate(1443,160)" d="m0 0h19l7 2-2 26-2 14-1 1h-28l-10 4-7 7-1 2-1 19v62h-2v-65l1-17 4-6 6-5 7-3 28-2 3-2 1-19v-14l-1-1h-21l-12 6-2-1 11-7z" fill="#DEFAFE"/>
<path transform="translate(950,295)" d="m0 0 1 3-6 3-12 3-1 2v19l2 1h67l12-2v-12l-1-9-15-4-2-1 1-2 19 5 1 1 1 25-1 1h-87l-1-3v-21l3-3 18-5z" fill="#DEFAFE"/>
<path transform="translate(1049,122)" d="m0 0h42l2 1 1 39 30 1v30l-2 1h-26v-1l21-1 5-3-1-18-1-5-27-2-1-1v-39l-39 1-3 7-1 10h-1v-19z" fill="#DEFAFE"/>
<path transform="translate(1526,162)" d="m0 0h6l-2 2-15 4-18 8-3 4-1 11v22l1 2 8 1 16-1 4-3 2-7h1l-1 12-2 2h-30l-1-1-1-8v-31l4-4 16-8z" fill="#DEFAFE"/>
<path transform="translate(104,414)" d="m0 0h16l21 2 22 6 26 12v1l-8-1-15-7-11-4-15-3-22-2h-18l-16 1 4-2z" fill="#DEFAFE"/>
<path transform="translate(817,277)" d="m0 0 4 4 7 8 9 5 8 2h11l14-2 14-5 8-4 4 1 6 14-1 3-4-6-3-6-4-1-8 5-11 3-8 1h-15l-14-3-8-6-8-9z" fill="#DEFAFE"/>
<path transform="translate(903,305)" d="m0 0 3 4 1 4-11 7-11 5-14 4-12 2h-22l-18-3-12-5-5-3 2-1 15 6 8 2 13 1h18l14-2 19-7 9-5h2z" fill="#DEFAFE"/>
<path transform="translate(571,165)" d="m0 0 1 4-4 12-3 22v28l4 24 8 22 10 16 2 5-5-5-10-16-8-21-4-32v-16l4-29z" fill="#DEFAFE"/>
<path transform="translate(421,77)" d="m0 0 4 2 24 24 10 13 10 15 9 15 11 23 6 18-1 3-8-21-16-32-11-17-9-12-11-12-18-18z" fill="#DEFAFE"/>
<path transform="translate(1714,160)" d="m0 0h12l15 3 12 7 5 6-5-2-5-4-8-4-9-3-7-1h-8l-9 2-16 8-12 11-7 7v-3l7-9 8-8 16-8z" fill="#DEFAFE"/>
<path transform="translate(1348,163)" d="m0 0h65l1 1 2 21h-2l-1-2-1-18-60 1-2 1v19l2 2 6 2v1l-9-1-1-1z" fill="#DEFAFE"/>
<path transform="translate(32,200)" d="m0 0h1l-1 11-3 16v53l2 20 2 12v7l-2-4-3-15-2-20-1-23 2-31 3-18z" fill="#DEFAFE"/>
<path transform="translate(193,339)" d="m0 0h1l-1 20-1 14v61l-1 2-2-1v-64l2-20z" fill="#DEFAFE"/>
<path transform="translate(1537,260)" d="m0 0 2 1-8 6-3 8v11l4 7 6 3 4 1h11l11-3 10-7 2-1-2 5-9 6-6 2-12 1-10-2-6-3-4-5-2-5v-9l3-9 7-6z" fill="#DEFAFE"/>
<path transform="translate(1634,301)" d="m0 0h5l2 2v25h-55v-3l2 1h44l5-1v-20z" fill="#DEFAFE"/>
<path transform="translate(814,229)" d="m0 0h54l-2 2-5 1h-24l-18-1-5-1z" fill="#DEFAFE"/>
<path transform="translate(1047,162)" d="m0 0v3l-19 1v23l7 2 12 2v1h-17l-4-1v-29l1-1z" fill="#DEFAFE"/>
<path transform="translate(1539,160)" d="m0 0h24l14 2 15 5 14 9 4 4-1 2-10-8-16-8-12-3-9-1h-30v-1z" fill="#DEFAFE"/>
<path transform="translate(1752,319)" d="m0 0 2 1-10 7-14 4-13 1-16-3-9-4 2-1 5 2 13 2h22l17-8z" fill="#DEFAFE"/>
<path transform="translate(1922,191)" d="m0 0 8 2 3 3-7-2h-14l-8 4-5 5-5 10-3 13h-1v-9l4-11 6-8 10-6z" fill="#DEFAFE"/>
<path transform="translate(377,260)" d="m0 0 5 2 14 12 8 8 8 7 9 10-1 2-15-16-11-9-8-8-9-7z" fill="#DEFAFE"/>
<path transform="translate(685,138)" d="m0 0 7 1 11 4 5 5 3 12v16h-1l-4-26-5-5-16-6z" fill="#DEFAFE"/>
<path transform="translate(428,308)" d="m0 0 7 6 10 11 11 15-1 2-14-17-8-10-5-5z" fill="#DEFAFE"/>
<path transform="translate(825,197)" d="m0 0 2 1-5 6-4 8-4 16-2 1 1-10 3-10 6-9z" fill="#DEFAFE"/>
<path transform="translate(79,419)" d="m0 0 4 1-1 4 4 8 3 3-1 2-12-13-1-4z" fill="#DEFAFE"/>
<path transform="translate(767,249)" d="m0 0h1l2 14 4 18-1 3-5-14-1-9z" fill="#DEFAFE"/>
<path transform="translate(1568,318)" d="m0 0 2 1-10 7-8 3-4-1 16-8z" fill="#DEFAFE"/>
</svg>
